<?xml version="1.0" encoding="utf-8"?>
<!DOCTYPE svg PUBLIC "-//W3C//DTD SVG 1.1//EN" "http://www.w3.org/Graphics/SVG/1.1/DTD/svg11.dtd" [
	<!ENTITY ns_svg "http://www.w3.org/2000/svg">
	<!ENTITY ns_xlink "http://www.w3.org/1999/xlink">
]>
<svg  version="1.1" xmlns="&ns_svg;" xmlns:xlink="&ns_xlink;" width="144" height="144" viewBox="0 0 144 144"
	 overflow="visible" enable-background="new 0 0 144 144" xml:space="preserve">
<g id="Notes">
	<path id="Notes_1_" fill="#f7e000" d="M70.828,2.388c-39.138,0-70.866,31.728-70.866,70.866c0,39.139,31.729,70.867,70.866,70.867
		c39.139,0,70.867-31.729,70.867-70.867C141.695,34.116,109.967,2.388,70.828,2.388z M33.663,82.379
		c-5.04,0-9.125-4.084-9.125-9.125c0-5.039,4.085-9.125,9.125-9.125c5.039,0,9.125,4.085,9.125,9.125
		C42.788,78.295,38.702,82.379,33.663,82.379z M70.829,82.379c-5.039,0-9.125-4.084-9.125-9.125c0-5.039,4.086-9.125,9.125-9.125
		c5.04,0,9.124,4.085,9.124,9.125C79.953,78.295,75.869,82.379,70.829,82.379z M107.994,82.379c-5.039,0-9.125-4.084-9.125-9.125
		c0-5.039,4.086-9.125,9.125-9.125c5.041,0,9.125,4.085,9.125,9.125C117.119,78.295,113.035,82.379,107.994,82.379z"/>
</g>
</svg>
