<?xml version="1.0" encoding="utf-8"?>
<!DOCTYPE svg PUBLIC "-//W3C//DTD SVG 1.1//EN" "http://www.w3.org/Graphics/SVG/1.1/DTD/svg11.dtd" [
	<!ENTITY ns_svg "http://www.w3.org/2000/svg">
	<!ENTITY ns_xlink "http://www.w3.org/1999/xlink">
]>
<svg  version="1.1" xmlns="&ns_svg;" xmlns:xlink="&ns_xlink;" width="144" height="144" viewBox="0 0 144 144"
	 overflow="visible" enable-background="new 0 0 144 144" xml:space="preserve">
<g id="Storyline">
	<path id="Storyline_1_" fill="#df4c95" d="M70.866,2.268C31.728,2.268,0,33.996,0,73.134C0,112.272,31.728,144,70.866,144
		c39.138,0,70.866-31.728,70.866-70.866C141.732,33.996,110.004,2.268,70.866,2.268z M83.172,117.762H60.175v-16.267h22.997V117.762
		z M89.824,81.229c-4.961,3.576-7.037,4.229-7.037,12.537H59.868c0-11.076,0.499-15.308,8.691-21.113
		c4.464-3.164,7.152-5.152,7.152-9.883c0-8.999-4.038-10.653-8.882-10.653c-6.462,0-9.7,4.389-10.153,8.653v0.115h-21.65
		c0-20.074,20.497-32.38,33.072-32.38c13.804,0,32.61,7.346,32.61,29.958C100.707,67.808,98.707,74.884,89.824,81.229z"/>
</g>
</svg>
