<?xml version="1.0" encoding="utf-8"?>
<!DOCTYPE svg PUBLIC "-//W3C//DTD SVG 1.1//EN" "http://www.w3.org/Graphics/SVG/1.1/DTD/svg11.dtd" [
	<!ENTITY ns_svg "http://www.w3.org/2000/svg">
	<!ENTITY ns_xlink "http://www.w3.org/1999/xlink">
]>
<svg  version="1.1" id="TheStorylineMethod" xmlns="&ns_svg;" xmlns:xlink="&ns_xlink;" width="424.56" height="595.2"
	 viewBox="0 0 424.56 595.2" overflow="visible" enable-background="new 0 0 424.56 595.2" xml:space="preserve">
<path fill="#FFFFFF" d="M195.151,440.628l2.518-22.3l15.466-2.158l-1.259-3.777l-14.387-0.449l-1.439-20.592l18.074,1.079
	l-1.438-6.834l-22.031,1.438l-0.899,60.877l25.357-2.518l-0.63-3.777L195.151,440.628z M251.261,386.586l-31.022,1.169l1.798,6.744
	l9.532-1.979l3.956,55.392l3.957,0.629l0.359-57.189l10.431-1.438L251.261,386.586z M363.48,385.687h-1.709
	c-3.147,0-6.385,0.359-8.992,0.989l-2.158,59.348c3.058,0.72,6.924,1.169,9.892,1.169c19.963,0,25.268-15.557,25.268-33.36
	C385.78,401.244,382.453,386.856,363.48,385.687z M362.85,440.898c-1.349,0-2.787-0.27-3.687-0.539l-1.349-49.547
	c1.078-0.359,3.327-0.629,4.945-0.629c7.014,0,16.006,5.305,16.006,27.965C378.766,427.14,377.597,440.898,362.85,440.898z
	 M164.219,388.834l-10.88,47.479h-0.719L140.3,385.867l-7.014,1.528l-4.766,59.168l7.194,2.068l1.349-51.614h0.27l13.219,49.366
	l4.046,1.529l14.028-51.436h0.359l3.058,49.997l4.046,0.719l-1.798-60.606L164.219,388.834z M323.375,385.867
	c-10.521,0-19.692,9.441-19.692,32.462c0,21.581,6.744,29.584,17.714,29.584c8.363,0,19.423-5.845,19.423-32.821
	C340.82,394.859,334.975,385.867,323.375,385.867z M323.106,442.517c-8.902,0-13.129-12.858-13.129-28.685
	c0-11.061,2.158-22.57,11.33-22.57c9.802,0,13.039,15.557,13.039,27.875C334.346,430.108,331.829,442.517,323.106,442.517z
	 M285.16,386.586l1.35,26.167l-20.143,0.629l2.967-26.796l-8.272-0.899l-1.259,61.057l4.676,0.898l2.158-29.313l19.783,1.169
	l0.809,28.235l5.846-0.54l-0.63-61.326L285.16,386.586z M199.771,333.735c-8.257,0-16.055,6.789-16.055,22.386v0.826
	c0.275,16.056,6.239,22.569,15.597,22.569c9.083,0,16.056-7.523,16.056-22.478C215.368,341.809,208.578,333.735,199.771,333.735z
	 M200.78,374.746c-5.229,0.184-10.275-6.789-10.275-19.909c0-6.422,0.642-16.056,7.707-16.239c8.349,0,10.367,14.037,10.367,21.377
	C208.578,367.406,206.835,374.562,200.78,374.746z M223.899,346.488l-0.459,33.028l7.34-1.284l-1.101-23.304
	c-0.643-9.633,4.495-14.771,9.266-15.047c0.367,0,2.019-0.183,2.386-0.091l-1.468-7.982c-7.799,0-10.275,9.083-10.551,10.092
	l-0.275,0.092l-1.835-8.073l-4.312,1.009C223.44,338.323,223.991,342.634,223.899,346.488z M287.476,316.946l-4.313-2.661
	l-2.386,66.607l7.432-1.376L287.476,316.946z M370.595,380.25c3.395,0,6.881-0.551,8.808-1.56l-1.835-6.331
	c-1.56,0.826-3.762,1.56-6.698,1.56c-0.458,0-0.917-0.092-1.376-0.092c-5.597-0.55-12.019-3.395-11.651-17.615l23.12,1.927
	c0.184-2.385,0.275-3.578,0.275-5.505c0-9.541-2.661-17.981-12.478-18.808c-0.367,0-0.826-0.092-1.193-0.092
	c-9.816,0-15.138,10.643-15.138,23.763C352.429,367.957,356.375,380.25,370.595,380.25z M367.017,338.323
	c4.771,0,7.522,5.229,7.522,13.578l-15.688-0.459C359.218,345.112,361.604,338.323,367.017,338.323z M332.521,333.735
	c-5.046,0-8.899,2.753-10.734,6.422h-0.184l-0.275-4.862l-4.036-0.825c0.642,9.357-0.643,27.615-1.561,43.946l7.248,0.642
	l-0.733-28.166c0-6.33,3.119-11.835,8.165-11.835c5.872,0,7.523,5.688,7.156,11.56l-1.651,27.616l5.413,0.551l2.568-29.451
	c0.092-0.825,0.092-1.56,0.092-2.293C343.989,337.129,337.842,333.735,332.521,333.735z M303.622,335.111l-5.229-1.009l0.551,44.681
	l7.34-0.734L303.622,335.111z M137.842,375.295c-3.395,0-6.881-1.376-9.174-2.844l-2.386,3.578c2.294,1.651,6.973,3.395,11.56,3.395
	c10.276,0,18.808-7.34,18.808-17.707c0-9.357-5.872-13.67-13.028-17.523c-6.056-3.119-9.909-6.422-9.909-12.937
	c0-4.403,3.395-8.624,10.092-8.624c3.486,0,6.33,1.102,7.981,2.202l1.744-6.422c-1.651-1.102-5.138-2.019-9.267-2.019
	c-9.817,0-16.514,6.697-16.514,15.964c0,9.358,6.147,12.478,12.386,17.891c4.954,4.22,8.899,7.981,8.899,14.037
	C149.036,370.158,144.907,375.295,137.842,375.295z M171.422,366.764l-2.11-27.616l8.991,0.275l-1.652-5.964l-6.973,1.743
	l-0.917-12.019l-5.046,3.67l0.367,8.165l-5.688,0.918l0.826,3.578l5.046-0.459l0.275,26.974c0.092,5.413,1.101,13.67,10.184,13.67
	c2.385,0,3.67-0.459,4.771-0.917l0.917-6.056c-0.734,0.275-2.385,0.734-3.67,0.734C174.725,373.461,171.789,371.902,171.422,366.764
	z M273.99,336.212l-4.036-1.743l-10.643,34.771h-0.184l-6.147-35.139l-8.349-1.468l11.651,41.103
	c0.275,0.642,0.275,1.192,0.275,1.742c0,1.561-2.66,14.863-10.826,19.268l2.11,2.752c2.844-1.192,6.238-3.119,8.532-5.964
	c6.147-7.706,9.267-17.064,11.835-28.899L273.99,336.212z M305.273,322.633c0-2.568-1.834-4.862-4.403-4.862
	c-1.835,0-3.945,1.284-3.945,4.496c0,0.458,0.184,4.587,4.679,4.587C303.897,326.579,305.273,324.927,305.273,322.633z
	 M254.844,317.072c0.181-2.016,1.332-4.176,3.24-4.176c2.484,0,3.061,2.448,2.88,4.572l-0.828,10.908l2.484-0.612l0.504-10.836
	c0.216-4.645-2.268-6.192-4.32-6.192c-1.044,0-1.8,0.252-2.483,0.684c-0.612,0.396-1.188,1.009-1.584,1.656h-0.181l0.469-9.359
	l-2.557,0.323v23.94l1.872,0.108L254.844,317.072z M273.6,328.952c1.332,0,2.7-0.216,3.456-0.611l-0.72-2.484
	c-0.612,0.324-1.476,0.612-2.628,0.612c-0.18,0-0.36-0.036-0.54-0.036c-2.196-0.216-4.716-1.332-4.572-6.912l9.072,0.756
	c0.072-0.936,0.107-1.404,0.107-2.16c0-3.744-1.043-7.056-4.896-7.38c-0.144,0-0.324-0.036-0.468-0.036
	c-3.853,0-5.94,4.176-5.94,9.324C266.472,324.128,268.02,328.952,273.6,328.952z M272.197,312.5c1.872,0,2.952,2.053,2.952,5.328
	l-6.156-0.18C269.136,315.164,270.073,312.5,272.197,312.5z M242.172,306.488l1.584,22.177l1.584,0.252l0.145-22.896l4.176-0.576
	l0.396-1.332l-12.42,0.468l0.72,2.7L242.172,306.488z"/>
</svg>
