<?xml version="1.0" encoding="utf-8"?>
<!DOCTYPE svg PUBLIC "-//W3C//DTD SVG 1.1//EN" "http://www.w3.org/Graphics/SVG/1.1/DTD/svg11.dtd" [
	<!ENTITY ns_svg "http://www.w3.org/2000/svg">
	<!ENTITY ns_xlink "http://www.w3.org/1999/xlink">
]>
<svg  version="1.1" xmlns="&ns_svg;" xmlns:xlink="&ns_xlink;" width="144" height="144" viewBox="0 0 144 144"
	 overflow="visible" enable-background="new 0 0 144 144" xml:space="preserve">
<g id="Intro" display="none">
	<path id="Intro_1_" display="inline" fill="#4AA8DA" d="M70.866,2.268C31.728,2.268,0,33.996,0,73.134
		C0,112.272,31.728,144,70.866,144c39.138,0,70.866-31.728,70.866-70.866C141.732,33.996,110.004,2.268,70.866,2.268z
		 M75.144,103.165c-6.433,6.572-15.818,14.011-25.335,13.997c4.939-3.14,8.087-9.427,9.974-14.758
		C36.601,99.254,19.35,87.318,19.35,73.065c0-16.657,23.552-30.16,52.605-30.16c29.051,0,52.604,13.503,52.604,30.16
		C124.56,89.106,102.71,102.219,75.144,103.165z"/>
</g>
<g id="Concept" display="none">
	<path id="Concept_17_" display="inline" fill="#4AA8DA" d="M79.282,19.536c-2.723-0.798-5.555-1.204-8.414-1.204
		c-7.959,0-15.445,3.102-21.076,8.735c-5.625,5.625-8.725,13.107-8.727,20.995c0,0,0.129,2.782,0.129,2.815
		c0.373,4.09,1.566,7.994,3.611,11.731l0.299,0.58c7.51,14.41,11.648,26.701,11.648,34.453v0.023c0,0,0.365,3.571,0.365,3.701
		c0.669,2.72,1.893,2.722,2.416,2.722h9.861l-0.057-6.391c-0.021-6.108-0.114-13.401-0.667-19.987
		c-1.275-0.294-2.655-0.959-4.733-2.311l-0.824-0.534c-5.031-3.252-7.067-7.957-7.067-11.997c0-1.006,0.126-1.972,0.364-2.862
		c0.74-2.777,2.563-4.574,4.757-4.688c2.188-0.115,5.393,1.31,8.237,8.749c0.582,1.52,0.97,3.477,1.352,5.439
		c1.857-7.181,4.579-14.275,8.756-16.285c1.713-0.825,3.576-0.763,5.383,0.177c1.787,0.929,2.798,2.441,2.924,4.373
		c0.008,0.134,0.012,0.271,0.012,0.409c0,6.218-8.826,14.714-10.935,16.184c-2.003,1.398-3.407,2.272-4.633,2.861
		c-0.046,0.221-0.091,0.393-0.134,0.619c0,0-0.144,0.723-0.17,0.853c0.469,6.379,0.529,13.225,0.55,18.99l0.058,6.401h9.628
		c0.524,0,1.755,0,2.384-2.511c0,0,0.4-3.912,0.393-3.751c0-13.688,12.005-35.154,12.1-35.32c1.934-3.688,3.101-7.601,3.463-11.559
		c0,0,0.131-2.809,0.133-2.813c0-7.958-3.098-15.439-8.723-21.068C88.415,23.539,84.036,20.934,79.282,19.536z M75.081,118.499
		H62.583c-0.879,0-1.596,0.715-1.596,1.6c0,0.884,0.717,1.601,1.596,1.601h12.498c0.883,0,1.594-0.717,1.594-1.601
		C76.675,119.214,75.964,118.499,75.081,118.499z M84.663,58.207c0-0.079-0.004-0.155-0.008-0.23
		c-0.053-0.82-0.418-1.348-1.222-1.764c-0.926-0.483-1.735-0.525-2.546-0.135c-2.01,0.967-4.886,4.818-7.716,16.949
		c0.665-0.437,1.228-0.787,2.161-1.438C77.319,70.204,84.663,62.506,84.663,58.207z M79.437,112.107H62.296
		c-0.885,0-1.602,0.716-1.602,1.597c0,0.883,0.717,1.599,1.602,1.599h17.141c0.886,0,1.602-0.716,1.602-1.599
		C81.038,112.823,80.322,112.107,79.437,112.107z M61.335,58.483c-0.764,0.041-1.494,0.958-1.862,2.34
		c-0.163,0.61-0.247,1.281-0.247,1.986c0,3.06,1.612,6.81,5.611,9.393l0.829,0.539c1.14,0.74,1.938,1.199,2.653,1.51
		c-0.424-3.474-0.974-6.697-1.873-9.052C64.513,60.146,62.483,58.422,61.335,58.483z M70.866,2.268C31.728,2.268,0,33.995,0,73.134
		C0,112.271,31.728,144,70.866,144c39.138,0,70.866-31.729,70.866-70.866C141.732,33.995,110.004,2.268,70.866,2.268z
		 M70.868,131.106c-3.736,0-7.041-1.818-9.1-4.613h18.197C77.91,129.288,74.601,131.106,70.868,131.106z M85.13,116.903
		c0,1.563-1.302,2.83-2.9,2.83c1.599,0,2.9,1.27,2.9,2.83c0,1.566-1.302,2.834-2.9,2.834H59.503c-1.6,0-2.9-1.268-2.9-2.834
		c0-1.561,1.301-2.83,2.9-2.83c-1.6,0-2.9-1.268-2.9-2.83s1.301-2.831,2.9-2.831c-1.6,0-2.9-1.269-2.9-2.835
		c0-1.56,1.301-2.824,2.9-2.824h22.727c1.599,0,2.9,1.265,2.9,2.824c0,1.566-1.302,2.835-2.9,2.835
		C83.828,114.072,85.13,115.341,85.13,116.903z M103.696,51.166c-0.406,4.442-1.689,8.753-3.842,12.858
		c-0.117,0.208-11.712,21.098-11.72,33.963c0,0-0.401,3.911-0.438,4.127c-1.094,4.475-3.916,5.144-5.501,5.144H59.534
		c-1.582,0-4.402-0.669-5.535-5.359c0,0-0.4-3.911-0.408-4.072c0-7.41-4.013-19.191-11.298-33.173l-0.514-1.237l0.188,0.59
		c-2.195-3.994-3.517-8.314-3.935-12.912c0,0-0.134-2.887-0.135-2.959c0-8.808,3.429-17.086,9.652-23.309
		c6.23-6.232,14.513-9.664,23.318-9.664c3.163,0,6.293,0.447,9.307,1.333c5.262,1.548,10.107,4.429,14.011,8.332
		c6.225,6.227,9.651,14.504,9.649,23.383C103.835,48.209,103.701,51.096,103.696,51.166z"/>
</g>
<g id="Genre" display="none">
	<circle display="inline" fill="#E2007A" cx="70.866" cy="73.134" r="70.866"/>
</g>
<g id="References" display="none">
	<circle display="inline" fill="#E2007A" cx="70.866" cy="73.134" r="70.866"/>
</g>
<g id="Topics_1_">
	<path id="Topics" fill="#4AA8DA" d="M65.339,45.846c-1.313,1.307-1.969,2.812-1.969,4.521c0,1.91,0.656,3.467,1.969,4.67
		c1.315,1.208,2.832,1.807,4.549,1.807c1.922,0,3.512-0.626,4.779-1.88c1.264-1.255,1.896-2.787,1.896-4.597
		c0-1.908-0.658-3.465-1.972-4.672c-1.315-1.202-2.883-1.807-4.703-1.807C68.171,43.888,66.654,44.542,65.339,45.846z M82.681,77.56
		c-5.597-3.998-13.192-3.998-19.988-7.595c-7.239-4.441-10.394-9.879-10.394-17.989c0-6.49,1.58-11.983,6.589-16.512
		c3.904-3.498,8.064-5.634,12.48-6.402c-12.767,0-23.451,4.613-32.046,13.833c-8.089,8.71-12.13,18.785-12.13,30.225
		c0,11.443,4.226,22.573,13.514,31.625c8.607,8.369,17.633,11.664,26.241,11.664c7.754,0,13.848-1.449,18.28-4.354
		c5.284-3.501,7.926-9.051,7.926-16.649C93.152,88.915,89.833,81.316,82.681,77.56z M74.938,100.991
		c-1.351,1.352-2.908,2.024-4.672,2.024c-1.873,0-3.454-0.647-4.752-1.944c-1.297-1.297-1.944-2.879-1.944-4.752
		c0-1.867,0.646-3.451,1.944-4.747c1.298-1.297,2.88-1.948,4.752-1.948c1.764,0,3.321,0.624,4.672,1.867
		c1.347,1.248,2.023,2.857,2.023,4.828C76.962,98.084,76.285,99.644,74.938,100.991z M70.866,2.268C31.728,2.268,0,33.996,0,73.134
		C0,112.272,31.728,144,70.866,144s70.867-31.728,70.867-70.866C141.732,33.996,110.004,2.268,70.866,2.268z M106.139,108.428
		c-9.731,9.719-21.509,14.575-35.335,14.575c-13.745,0-25.481-4.856-35.212-14.575c-9.732-9.719-14.594-21.483-14.594-35.294
		c0-13.81,4.862-25.572,14.594-35.291c9.731-9.719,21.468-14.579,35.212-14.579c13.827,0,25.604,4.859,35.335,14.579
		c9.731,9.719,14.597,21.48,14.597,35.291C120.735,86.944,115.87,98.709,106.139,108.428z"/>
</g>
<g id="World" display="none">
	<path id="World_1_" display="inline" fill="#4AA8DA" d="M64.121,117.983c1.614,0.293,3.078,0.438,4.544,0.438V96.438
		c-4.688,0.293-9.818,1.319-14.801,3.077C56.499,106.11,60.02,112.561,64.121,117.983z M52.397,95.999
		c5.569-2.347,11.285-3.812,16.268-4.104V75.332H47.853C48.148,81.928,49.759,88.963,52.397,95.999z M47.853,70.935h20.813V54.374
		c-4.983-0.295-10.699-1.76-16.268-4.104C49.759,57.159,48.148,64.047,47.853,70.935z M53.717,46.605
		c4.835,1.76,10.113,2.932,14.949,3.225V27.845c-1.467,0-2.93,0.146-4.544,0.439C60.167,33.707,56.499,39.864,53.717,46.605z
		 M58.262,29.603c-6.888,1.758-13.047,5.276-18.178,9.966c2.639,1.905,6.012,3.811,9.823,5.423
		C52.103,39.424,55.037,34,58.262,29.603z M101.644,39.569c-5.13-4.689-11.285-8.208-18.173-9.966
		c3.225,4.397,6.154,9.821,8.351,15.389C95.633,43.38,99.005,41.474,101.644,39.569z M40.083,106.698
		c5.131,4.69,11.29,8.208,18.178,9.817c-3.373-4.541-6.159-9.817-8.208-15.389C46.243,102.74,42.87,104.645,40.083,106.698z
		 M48.439,48.803c-4.397-1.905-8.356-3.956-11.433-6.155c-6.741,7.475-10.842,17.295-11.285,28.287h17.735
		C43.751,64.633,45.509,56.718,48.439,48.803z M43.457,75.332H25.721c0.443,10.992,4.544,20.813,11.285,28.287
		c3.077-2.199,7.036-4.25,11.433-6.155C45.362,89.549,43.604,81.489,43.457,75.332z M93.289,48.803
		c2.93,7.915,4.691,15.83,4.982,22.132h17.734c-0.438-10.992-4.544-20.812-11.284-28.287
		C101.644,44.847,97.686,46.898,93.289,48.803z M83.471,116.516c6.888-1.609,13.043-5.127,18.173-9.817
		c-2.786-2.054-6.154-3.958-9.965-5.571C89.625,106.698,86.839,111.975,83.471,116.516z M93.289,97.464
		c4.396,1.905,8.354,3.956,11.433,6.155c6.74-7.475,10.846-17.295,11.284-28.287H98.271C98.124,81.489,96.365,89.549,93.289,97.464z
		 M70.866,2.268C31.728,2.268,0,33.996,0,73.134C0,112.272,31.728,144,70.866,144c39.139,0,70.867-31.728,70.867-70.866
		C141.732,33.996,110.005,2.268,70.866,2.268z M70.866,122.967c-27.848,0-49.832-21.984-49.832-49.834
		c0-27.847,21.984-49.832,49.832-49.832c27.848,0,49.833,21.984,49.833,49.832C120.698,100.982,98.714,122.967,70.866,122.967z
		 M93.875,75.332H73.062v16.563c4.983,0.293,10.7,1.758,16.269,4.104C91.969,88.963,93.584,81.928,93.875,75.332z M89.33,50.27
		c-5.568,2.344-11.285,3.809-16.269,4.104v16.561h20.813C93.584,64.047,91.969,57.159,89.33,50.27z M77.606,28.284
		c-1.61-0.293-3.077-0.439-4.545-0.439V49.83c4.841-0.293,10.113-1.465,14.949-3.225C85.229,39.864,81.565,33.707,77.606,28.284z
		 M73.062,96.438v21.984c1.468,0,2.935-0.146,4.545-0.438c4.102-5.423,7.622-11.873,10.261-18.469
		C82.885,97.757,77.754,96.73,73.062,96.438z"/>
</g>
<g id="Notes" display="none">
	<circle display="inline" fill="#E2007A" cx="70.866" cy="73.134" r="70.866"/>
</g>
<g id="Protagonists" display="none">
	<circle display="inline" fill="#E2007A" cx="70.866" cy="73.134" r="70.866"/>
</g>
<g id="Description" display="none">
	<circle display="inline" fill="#E2007A" cx="70.866" cy="73.134" r="70.866"/>
</g>
<g id="Pilot" display="none">
	<path id="Pilot_1_" display="inline" fill="#4AA8DA" d="M70.866,2.268C31.728,2.268,0,33.996,0,73.134
		C0,112.271,31.728,144,70.866,144c39.138,0,70.866-31.729,70.866-70.866C141.732,33.996,110.004,2.268,70.866,2.268z
		 M115.102,34.916c-2.848,5.343-18.357,20.592-18.357,20.592l1.646,51.798l-7.278,9.023L77.237,71.907L56.404,91.678l1.034,18.118
		l-7.915,6.597l-4.737-17.839c-0.239,0.257-1.029,1.013-3.328,3.083c-4.116,3.71-5.088,0.604-2.375-2.5
		c2.713-3.103,3.312-3.145,3.312-3.145l-16.93-7.707l9.915-6.24l13.503,4.094l22.021-20.9L28.377,45.996l5.127-5.923l56.71,7.366
		c0,0,16.898-14.98,20.928-16.692C115.176,29.031,117.947,29.569,115.102,34.916z"/>
</g>
<g id="Review" display="none">
	<circle display="inline" fill="#E2007A" cx="70.866" cy="73.134" r="70.866"/>
</g>
<g id="Premise" display="none">
	<path id="Premise_1_" display="inline" fill="#4AA8DA" d="M70.866,2.268C31.728,2.268,0,33.996,0,73.134
		C0,112.272,31.728,144,70.866,144c39.138,0,70.866-31.728,70.866-70.866C141.732,33.996,110.004,2.268,70.866,2.268z
		 M111.603,76.842c-3.198,1.886-55.453,32.101-59.237,34.199c-2.771,1.539-6.406-0.161-6.406-3.663v-68.38
		c0-3.179,3.289-5.544,6.539-3.685c2.605,1.489,54.662,31.55,59.104,34.122C114.521,71.125,114.472,75.151,111.603,76.842z"/>
</g>
<g id="Prolog" display="none">
	<circle display="inline" fill="#E2007A" cx="70.866" cy="73.134" r="70.866"/>
</g>
<g id="Trailer" display="none">
	<path id="Trailer_1_" display="inline" fill="#4AA8DA" d="M70.867,2.268C31.728,2.268,0,33.996,0,73.134
		C0,112.272,31.728,144,70.867,144c39.137,0,70.866-31.728,70.866-70.866C141.732,33.996,110.004,2.268,70.867,2.268z
		 M97.511,31.414c6.672-1.729,9.719-0.29,11.624,7.063l0.983,3.797l-4.646,1.204l-11.219-11.22L97.511,31.414z M68.13,62.917h14.13
		l-7.127,12.917H61.003L68.13,62.917z M54.867,75.834H40.929l7.127-12.917h13.938L54.867,75.834z M88.397,62.917h14.08L95.35,75.834
		H81.27L88.397,62.917z M88.62,33.717l11.219,11.22L86.08,48.501L74.86,37.282L88.62,33.717z M69.227,38.742l11.219,11.22
		l-13.958,3.616l-11.22-11.22L69.227,38.742z M36.163,47.308l13.472-3.491l11.22,11.22l-13.692,3.547L35.947,47.369
		C36.021,47.349,36.088,47.328,36.163,47.308z M31.017,49.532l10.513,10.513l-11.085,2.872H41.92l-7.127,12.917h-4.375v-12.91
		l-0.001,0l-0.983-3.798C28.167,54.242,28.621,51.4,31.017,49.532z M112.667,106.295c0,7.595-3.588,10.752-10.479,10.752H40.813
		c-6.893,0-10.48-3.157-10.48-10.752V79.372h82.333V106.295z M112.667,75.834h-11.181l7.128-12.917h4.053V75.834z"/>
</g>
<g id="Storyline" display="none">
	<path id="Storyline_1_" display="inline" fill="#4AA8DA" d="M70.866,2.268C31.728,2.268,0,33.996,0,73.134
		C0,112.272,31.728,144,70.866,144c39.138,0,70.866-31.728,70.866-70.866C141.732,33.996,110.004,2.268,70.866,2.268z
		 M83.172,117.762H60.175v-16.267h22.997V117.762z M89.824,81.229c-4.961,3.576-7.037,4.229-7.037,12.537H59.868
		c0-11.076,0.499-15.308,8.691-21.113c4.464-3.164,7.152-5.152,7.152-9.883c0-8.999-4.038-10.653-8.882-10.653
		c-6.462,0-9.7,4.389-10.153,8.653v0.115h-21.65c0-20.074,20.497-32.38,33.072-32.38c13.804,0,32.61,7.346,32.61,29.958
		C100.707,67.808,98.707,74.884,89.824,81.229z"/>
</g>
<g id="Finale" display="none">
	<path id="Finale_1_" display="inline" fill="#4AA8DA" d="M70.866,2.268C31.728,2.268,0,33.996,0,73.134
		C0,112.272,31.728,144,70.866,144c39.138,0,70.866-31.728,70.866-70.866C141.732,33.996,110.004,2.268,70.866,2.268z M114.707,91.4
		l-24.354-2.899l15.077,29.574L75.274,96.62l-24.936,28.414l11.598-35.373l-36.533,18.557l25.515-26.096l-38.273-5.799l34.794-6.958
		L27.143,54.288l24.936,1.74L32.942,28.192l31.314,20.877l3.479-19.717l5.799,17.977L96.73,21.233l-5.219,28.995l26.675-5.799
		L94.991,61.827l26.096,3.479L97.891,76.903L114.707,91.4z"/>
</g>
<g id="Epilog" display="none">
	<path id="Epilog_1_" display="inline" fill="#4AA8DA" d="M70.866,2.268C31.728,2.268,0,33.996,0,73.134
		C0,112.272,31.728,144,70.866,144c39.138,0,70.866-31.728,70.866-70.866C141.732,33.996,110.004,2.268,70.866,2.268z
		 M83.114,117.562H59.271v-17.449h23.843V117.562z M86.582,51.354l-4.95,41.581H60.1l-4.95-41.581V28.707h31.432V51.354z"/>
</g>
</svg>
