<?xml version="1.0" encoding="utf-8"?>
<!DOCTYPE svg PUBLIC "-//W3C//DTD SVG 1.1//EN" "http://www.w3.org/Graphics/SVG/1.1/DTD/svg11.dtd" [
	<!ENTITY ns_svg "http://www.w3.org/2000/svg">
	<!ENTITY ns_xlink "http://www.w3.org/1999/xlink">
]>
<svg  version="1.1" xmlns="&ns_svg;" xmlns:xlink="&ns_xlink;" width="144" height="144" viewBox="0 0 144 144"
	 overflow="visible" enable-background="new 0 0 144 144" xml:space="preserve">
<g id="Intro" display="none">
	<path id="Intro_1_" display="inline" fill="#4AA8DA" d="M70.866,2.268C31.728,2.268,0,33.996,0,73.134
		C0,112.272,31.728,144,70.866,144c39.138,0,70.866-31.728,70.866-70.866C141.732,33.996,110.004,2.268,70.866,2.268z
		 M75.144,103.165c-6.433,6.572-15.818,14.011-25.335,13.997c4.939-3.14,8.087-9.427,9.974-14.758
		C36.601,99.254,19.35,87.318,19.35,73.065c0-16.657,23.552-30.16,52.605-30.16c29.051,0,52.604,13.503,52.604,30.16
		C124.56,89.106,102.71,102.219,75.144,103.165z"/>
</g>
<g id="Concept" display="none">
	<path id="Concept_17_" display="inline" fill="#4AA8DA" d="M79.282,19.536c-2.723-0.798-5.555-1.204-8.414-1.204
		c-7.959,0-15.445,3.102-21.076,8.735c-5.625,5.625-8.725,13.107-8.727,20.995c0,0,0.129,2.782,0.129,2.815
		c0.373,4.09,1.566,7.994,3.611,11.731l0.299,0.58c7.51,14.41,11.648,26.701,11.648,34.453v0.023c0,0,0.365,3.571,0.365,3.701
		c0.669,2.72,1.893,2.722,2.416,2.722h9.861l-0.057-6.391c-0.021-6.108-0.114-13.401-0.667-19.987
		c-1.275-0.294-2.655-0.959-4.733-2.311l-0.824-0.534c-5.031-3.252-7.067-7.957-7.067-11.997c0-1.006,0.126-1.972,0.364-2.862
		c0.74-2.777,2.563-4.574,4.757-4.688c2.188-0.115,5.393,1.31,8.237,8.749c0.582,1.52,0.97,3.477,1.352,5.439
		c1.857-7.181,4.579-14.275,8.756-16.285c1.713-0.825,3.576-0.763,5.383,0.177c1.787,0.929,2.798,2.441,2.924,4.373
		c0.008,0.134,0.012,0.271,0.012,0.409c0,6.218-8.826,14.714-10.935,16.184c-2.003,1.398-3.407,2.272-4.633,2.861
		c-0.046,0.221-0.091,0.393-0.134,0.619c0,0-0.144,0.723-0.17,0.853c0.469,6.379,0.529,13.225,0.55,18.99l0.058,6.401h9.628
		c0.524,0,1.755,0,2.384-2.511c0,0,0.4-3.912,0.393-3.751c0-13.688,12.005-35.154,12.1-35.32c1.934-3.688,3.101-7.601,3.463-11.559
		c0,0,0.131-2.809,0.133-2.813c0-7.958-3.098-15.439-8.723-21.068C88.415,23.539,84.036,20.934,79.282,19.536z M75.081,118.499
		H62.583c-0.879,0-1.596,0.715-1.596,1.6c0,0.884,0.717,1.601,1.596,1.601h12.498c0.883,0,1.594-0.717,1.594-1.601
		C76.675,119.214,75.964,118.499,75.081,118.499z M84.663,58.207c0-0.079-0.004-0.155-0.008-0.23
		c-0.053-0.82-0.418-1.348-1.222-1.764c-0.926-0.483-1.735-0.525-2.546-0.135c-2.01,0.967-4.886,4.818-7.716,16.949
		c0.665-0.437,1.228-0.787,2.161-1.438C77.319,70.204,84.663,62.506,84.663,58.207z M79.437,112.107H62.296
		c-0.885,0-1.602,0.716-1.602,1.597c0,0.883,0.717,1.599,1.602,1.599h17.141c0.886,0,1.602-0.716,1.602-1.599
		C81.038,112.823,80.322,112.107,79.437,112.107z M61.335,58.483c-0.764,0.041-1.494,0.958-1.862,2.34
		c-0.163,0.61-0.247,1.281-0.247,1.986c0,3.06,1.612,6.81,5.611,9.393l0.829,0.539c1.14,0.74,1.938,1.199,2.653,1.51
		c-0.424-3.474-0.974-6.697-1.873-9.052C64.513,60.146,62.483,58.422,61.335,58.483z M70.866,2.268C31.728,2.268,0,33.995,0,73.134
		C0,112.271,31.728,144,70.866,144c39.138,0,70.866-31.729,70.866-70.866C141.732,33.995,110.004,2.268,70.866,2.268z
		 M70.868,131.106c-3.736,0-7.041-1.818-9.1-4.613h18.197C77.91,129.288,74.601,131.106,70.868,131.106z M85.13,116.903
		c0,1.563-1.302,2.83-2.9,2.83c1.599,0,2.9,1.27,2.9,2.83c0,1.566-1.302,2.834-2.9,2.834H59.503c-1.6,0-2.9-1.268-2.9-2.834
		c0-1.561,1.301-2.83,2.9-2.83c-1.6,0-2.9-1.268-2.9-2.83s1.301-2.831,2.9-2.831c-1.6,0-2.9-1.269-2.9-2.835
		c0-1.56,1.301-2.824,2.9-2.824h22.727c1.599,0,2.9,1.265,2.9,2.824c0,1.566-1.302,2.835-2.9,2.835
		C83.828,114.072,85.13,115.341,85.13,116.903z M103.696,51.166c-0.406,4.442-1.689,8.753-3.842,12.858
		c-0.117,0.208-11.712,21.098-11.72,33.963c0,0-0.401,3.911-0.438,4.127c-1.094,4.475-3.916,5.144-5.501,5.144H59.534
		c-1.582,0-4.402-0.669-5.535-5.359c0,0-0.4-3.911-0.408-4.072c0-7.41-4.013-19.191-11.298-33.173l-0.514-1.237l0.188,0.59
		c-2.195-3.994-3.517-8.314-3.935-12.912c0,0-0.134-2.887-0.135-2.959c0-8.808,3.429-17.086,9.652-23.309
		c6.23-6.232,14.513-9.664,23.318-9.664c3.163,0,6.293,0.447,9.307,1.333c5.262,1.548,10.107,4.429,14.011,8.332
		c6.225,6.227,9.651,14.504,9.649,23.383C103.835,48.209,103.701,51.096,103.696,51.166z"/>
</g>
<g id="Genre" display="none">
	<path id="Genre_1_" display="inline" fill="#4AA8DA" d="M70.866,2.268C31.728,2.268,0,33.996,0,73.134
		C0,112.272,31.728,144,70.866,144c39.139,0,70.866-31.728,70.866-70.866C141.732,33.996,110.005,2.268,70.866,2.268z M23.75,48.25
		c0-10.493,8.507-19,19-19s19,8.507,19,19c0,10.494-8.507,19-19,19S23.75,58.744,23.75,48.25z M89.5,110c0,6.627-1.373,8-8,8H43.75
		c-6.627,0-8-1.373-8-8V79.75c0-6.627,1.373-8,8-8H81.5c6.627,0,8,1.373,8,8V110z M100.25,104.75H93V84.5h7.25V104.75z M81.5,67.25
		c-10.493,0-19-8.506-19-19c0-10.493,8.507-19,19-19s19,8.507,19,19C100.5,58.744,91.993,67.25,81.5,67.25z M117.25,110.75l-13.25-6
		V84.5l13.25-6V110.75z"/>
</g>
<g id="References" display="none">
	<path id="References_1_" display="inline" fill="#4AA8DA" d="M82.834,88.666L28,77.667v9.167l54.834,11V88.666z M24.333,102.834
		l54.833,11v-10.168L24.333,92.667V102.834z M76.667,73.166l-54.833-11v10.167l54.833,11V73.166z M114.479,45.291l-6.051,4.985
		L82.5,72.313l-0.004-0.003l-1.23,1.047c-0.421,0.358-0.932,0.529-1.433,0.533v9.84l34.646-28.854V45.291z M70.866,2.268
		C31.728,2.268,0,33.996,0,73.134C0,112.272,31.728,144,70.866,144c39.139,0,70.866-31.728,70.866-70.866
		C141.732,33.996,110.005,2.268,70.866,2.268z M125.537,69.635l-4.85,4.148v1.976l0.109,6.757c0.638,0.286,1.75,0.406,1.828,1.771
		c0.033,0.581-0.276,1.094-0.698,1.43L84.84,117.408c-0.468,0.556-1.362,0.675-2.401,0.675c-0.64,0-1.221-0.049-1.688-0.21v0.002
		l-56.188-11.507c-0.306-0.037-0.607-0.095-0.902-0.185l-0.286-0.059l0.007-0.045c-3.372-1.229-5.882-5.711-5.882-9.33
		c0-3.681,2.595-8.264,6.055-9.399c-1.517-1.925-2.472-4.477-2.472-6.704c0-1.446,0.408-3.029,1.104-4.49
		c-4.054-0.318-7.281-5.532-7.281-9.636c0-2.951,1.669-6.479,4.113-8.349L19,58.167L62.5,27.75l55.922,10.031l-0.018,0.015
		c0.869,0.144,1.533,0.894,1.533,1.803c0,0.963-0.744,1.744-1.688,1.819v9.402l6.104,0.946c1.013,0,1.833,0.821,1.833,1.833
		c0,0.963-0.744,1.744-1.688,1.819v10.848h0.042c1.013,0,1.833,0.821,1.833,1.833C126.375,68.744,126.041,69.308,125.537,69.635z
		 M87.426,102.162c-0.02,0.009-0.041,0.015-0.062,0.022c-0.026,0.009-0.054,0.018-0.079,0.024c-0.092,0.029-0.188,0.049-0.286,0.059
		c-0.005,0-0.011,0.001-0.016,0.001c-0.041,0.004-0.081,0.013-0.124,0.013h-1.969L82.729,104v9.896l34.646-28.854v-8.206
		l-28.612,24.538C88.315,101.756,87.844,102.021,87.426,102.162z M86.333,98.396l34.646-28.854V58.958L86.333,88.5V98.396z"/>
</g>
<g id="Topics_1_" display="none">
	<path id="Topics" display="inline" fill="#4AA8DA" d="M65.339,45.846c-1.313,1.307-1.969,2.812-1.969,4.521
		c0,1.91,0.656,3.467,1.969,4.67c1.315,1.208,2.832,1.807,4.549,1.807c1.922,0,3.512-0.626,4.779-1.88
		c1.264-1.255,1.896-2.787,1.896-4.597c0-1.908-0.658-3.465-1.972-4.672c-1.315-1.202-2.883-1.807-4.703-1.807
		C68.171,43.888,66.654,44.542,65.339,45.846z M82.681,77.56c-5.597-3.998-13.192-3.998-19.988-7.595
		c-7.239-4.441-10.394-9.879-10.394-17.989c0-6.49,1.58-11.983,6.589-16.512c3.904-3.498,8.064-5.634,12.48-6.402
		c-12.767,0-23.451,4.613-32.046,13.833c-8.089,8.71-12.13,18.785-12.13,30.225c0,11.443,4.226,22.573,13.514,31.625
		c8.607,8.369,17.633,11.664,26.241,11.664c7.754,0,13.848-1.449,18.28-4.354c5.284-3.501,7.926-9.051,7.926-16.649
		C93.152,88.915,89.833,81.316,82.681,77.56z M74.938,100.991c-1.351,1.352-2.908,2.024-4.672,2.024
		c-1.873,0-3.454-0.647-4.752-1.944c-1.297-1.297-1.944-2.879-1.944-4.752c0-1.867,0.646-3.451,1.944-4.747
		c1.298-1.297,2.88-1.948,4.752-1.948c1.764,0,3.321,0.624,4.672,1.867c1.347,1.248,2.023,2.857,2.023,4.828
		C76.962,98.084,76.285,99.644,74.938,100.991z M70.866,2.268C31.728,2.268,0,33.996,0,73.134C0,112.272,31.728,144,70.866,144
		s70.867-31.728,70.867-70.866C141.732,33.996,110.004,2.268,70.866,2.268z M106.139,108.428
		c-9.731,9.719-21.509,14.575-35.335,14.575c-13.745,0-25.481-4.856-35.212-14.575c-9.732-9.719-14.594-21.483-14.594-35.294
		c0-13.81,4.862-25.572,14.594-35.291c9.731-9.719,21.468-14.579,35.212-14.579c13.827,0,25.604,4.859,35.335,14.579
		c9.731,9.719,14.597,21.48,14.597,35.291C120.735,86.944,115.87,98.709,106.139,108.428z"/>
</g>
<g id="World" display="none">
	<path id="World_1_" display="inline" fill="#4AA8DA" d="M64.121,117.983c1.614,0.293,3.078,0.438,4.544,0.438V96.438
		c-4.688,0.293-9.818,1.319-14.801,3.077C56.499,106.11,60.02,112.561,64.121,117.983z M52.397,95.999
		c5.569-2.347,11.285-3.812,16.268-4.104V75.332H47.853C48.148,81.928,49.759,88.963,52.397,95.999z M47.853,70.935h20.813V54.374
		c-4.983-0.295-10.699-1.76-16.268-4.104C49.759,57.159,48.148,64.047,47.853,70.935z M53.717,46.605
		c4.835,1.76,10.113,2.932,14.949,3.225V27.845c-1.467,0-2.93,0.146-4.544,0.439C60.167,33.707,56.499,39.864,53.717,46.605z
		 M58.262,29.603c-6.888,1.758-13.047,5.276-18.178,9.966c2.639,1.905,6.012,3.811,9.823,5.423
		C52.103,39.424,55.037,34,58.262,29.603z M101.644,39.569c-5.13-4.689-11.285-8.208-18.173-9.966
		c3.225,4.397,6.154,9.821,8.351,15.389C95.633,43.38,99.005,41.474,101.644,39.569z M40.083,106.698
		c5.131,4.69,11.29,8.208,18.178,9.817c-3.373-4.541-6.159-9.817-8.208-15.389C46.243,102.74,42.87,104.645,40.083,106.698z
		 M48.439,48.803c-4.397-1.905-8.356-3.956-11.433-6.155c-6.741,7.475-10.842,17.295-11.285,28.287h17.735
		C43.751,64.633,45.509,56.718,48.439,48.803z M43.457,75.332H25.721c0.443,10.992,4.544,20.813,11.285,28.287
		c3.077-2.199,7.036-4.25,11.433-6.155C45.362,89.549,43.604,81.489,43.457,75.332z M93.289,48.803
		c2.93,7.915,4.691,15.83,4.982,22.132h17.734c-0.438-10.992-4.544-20.812-11.284-28.287
		C101.644,44.847,97.686,46.898,93.289,48.803z M83.471,116.516c6.888-1.609,13.043-5.127,18.173-9.817
		c-2.786-2.054-6.154-3.958-9.965-5.571C89.625,106.698,86.839,111.975,83.471,116.516z M93.289,97.464
		c4.396,1.905,8.354,3.956,11.433,6.155c6.74-7.475,10.846-17.295,11.284-28.287H98.271C98.124,81.489,96.365,89.549,93.289,97.464z
		 M70.866,2.268C31.728,2.268,0,33.996,0,73.134C0,112.272,31.728,144,70.866,144c39.139,0,70.867-31.728,70.867-70.866
		C141.732,33.996,110.005,2.268,70.866,2.268z M70.866,122.967c-27.848,0-49.832-21.984-49.832-49.834
		c0-27.847,21.984-49.832,49.832-49.832c27.848,0,49.833,21.984,49.833,49.832C120.698,100.982,98.714,122.967,70.866,122.967z
		 M93.875,75.332H73.062v16.563c4.983,0.293,10.7,1.758,16.269,4.104C91.969,88.963,93.584,81.928,93.875,75.332z M89.33,50.27
		c-5.568,2.344-11.285,3.809-16.269,4.104v16.561h20.813C93.584,64.047,91.969,57.159,89.33,50.27z M77.606,28.284
		c-1.61-0.293-3.077-0.439-4.545-0.439V49.83c4.841-0.293,10.113-1.465,14.949-3.225C85.229,39.864,81.565,33.707,77.606,28.284z
		 M73.062,96.438v21.984c1.468,0,2.935-0.146,4.545-0.438c4.102-5.423,7.622-11.873,10.261-18.469
		C82.885,97.757,77.754,96.73,73.062,96.438z"/>
</g>
<g id="Notes" display="none">
	<path id="Notes_1_" display="inline" fill="#4AA8DA" d="M70.828,2.388c-39.138,0-70.866,31.728-70.866,70.866
		c0,39.139,31.729,70.867,70.866,70.867c39.139,0,70.867-31.729,70.867-70.867C141.695,34.116,109.967,2.388,70.828,2.388z
		 M33.663,82.379c-5.04,0-9.125-4.084-9.125-9.125c0-5.039,4.085-9.125,9.125-9.125c5.039,0,9.125,4.085,9.125,9.125
		C42.788,78.295,38.702,82.379,33.663,82.379z M70.829,82.379c-5.039,0-9.125-4.084-9.125-9.125c0-5.039,4.086-9.125,9.125-9.125
		c5.04,0,9.124,4.085,9.124,9.125C79.953,78.295,75.869,82.379,70.829,82.379z M107.994,82.379c-5.039,0-9.125-4.084-9.125-9.125
		c0-5.039,4.086-9.125,9.125-9.125c5.041,0,9.125,4.085,9.125,9.125C117.119,78.295,113.035,82.379,107.994,82.379z"/>
</g>
<g id="Protagonists" display="none">
	<path id="Protagonists_1_" display="inline" fill="#4AA8DA" d="M70.866,2.268C31.728,2.268,0,33.996,0,73.134
		C0,112.272,31.728,144,70.866,144c39.139,0,70.866-31.728,70.866-70.866C141.732,33.996,110.005,2.268,70.866,2.268z
		 M99.032,30.024c5.877,0,10.64,4.764,10.64,10.64s-4.763,10.64-10.64,10.64s-10.639-4.764-10.639-10.64
		S93.155,30.024,99.032,30.024z M71.28,25.526c6.428,0,11.643,5.212,11.643,11.641c0,6.43-5.215,11.643-11.643,11.643
		c-6.429,0-11.642-5.212-11.642-11.643C59.639,30.739,64.852,25.526,71.28,25.526z M43.223,30.024c5.878,0,10.64,4.765,10.64,10.64
		c0,5.876-4.761,10.64-10.64,10.64c-5.876,0-10.639-4.764-10.639-10.64C32.584,34.789,37.347,30.024,43.223,30.024z M54.744,102.063
		v12.838c0,2.478-2.009,2.374-4.484,2.374c-2.48,0-4.048,0.267-4.484-2.374l-2.129-12.838H42.8l-2.129,12.838
		c-0.437,2.641-2.005,2.374-4.484,2.374c-2.474,0-4.484,0.104-4.484-2.374v-12.838l-0.044-14.439
		c-3.165-1.692-5.231-4.649-5.231-8.863V63.11c0-6.994,5.669-10.552,12.662-10.552h8.27c1.484,0,2.903,0.17,4.228,0.49
		c-1.404,1.824-2.248,4.128-2.248,6.64v20.675c0,4.07,2.203,7.604,5.444,9.409L54.744,102.063z M83.934,88.551l-0.048,15.798v14.047
		c0,2.71-2.198,2.598-4.907,2.598c-2.71,0-4.427,0.29-4.906-2.598l-2.327-14.047h-0.929l-2.326,14.047
		c-0.481,2.888-2.197,2.598-4.907,2.598c-2.71,0-4.907,0.112-4.907-2.598v-14.047l-0.048-15.798
		c-3.463-1.853-5.725-5.088-5.725-9.698V61.727c0-7.652,6.203-11.546,13.854-11.546h9.045c7.651,0,13.854,3.894,13.854,11.546
		v17.126C89.658,83.463,87.396,86.698,83.934,88.551z M115.829,78.763c0,4.213-2.067,7.17-5.232,8.863l-0.043,14.439v12.837
		c0,2.478-2.011,2.374-4.485,2.374c-2.479,0-4.047,0.267-4.482-2.374l-2.129-12.837H98.61l-2.131,12.837
		c-0.437,2.641-2.005,2.374-4.484,2.374c-2.474,0-4.483,0.104-4.483-2.374v-12.837l-0.036-12.293
		c3.239-1.804,5.443-5.339,5.443-9.409V59.688c0-2.512-0.846-4.815-2.249-6.64c1.324-0.319,2.742-0.49,4.229-0.49h8.269
		c6.993,0,12.662,3.558,12.662,10.552V78.763z"/>
</g>
<g id="Description" display="none">
	<path id="Description_1_" display="inline" fill="#4AA8DA" d="M70.866,2.268C31.728,2.268,0,33.996,0,73.134
		C0,112.272,31.728,144,70.866,144c39.139,0,70.866-31.728,70.866-70.866C141.732,33.996,110.005,2.268,70.866,2.268z M70.865,23.75
		c14.729,0,26.669,11.938,26.669,26.667s-11.94,26.667-26.669,26.667c-14.729,0-26.667-11.938-26.667-26.667
		S56.136,23.75,70.865,23.75z M70.866,136.251c-17.515,0-33.359-7.138-44.794-18.658c5.953-19.078,23.756-32.926,44.794-32.926
		c21.038,0,38.84,13.848,44.793,32.926C104.225,129.113,88.381,136.251,70.866,136.251z"/>
</g>
<g id="Pilot" display="none">
	<path id="Pilot_1_" display="inline" fill="#4AA8DA" d="M70.866,2.268C31.728,2.268,0,33.996,0,73.134
		C0,112.271,31.728,144,70.866,144c39.138,0,70.866-31.729,70.866-70.866C141.732,33.996,110.004,2.268,70.866,2.268z
		 M115.102,34.916c-2.848,5.343-18.357,20.592-18.357,20.592l1.646,51.798l-7.278,9.023L77.237,71.907L56.404,91.678l1.034,18.118
		l-7.915,6.597l-4.737-17.839c-0.239,0.257-1.029,1.013-3.328,3.083c-4.116,3.71-5.088,0.604-2.375-2.5
		c2.713-3.103,3.312-3.145,3.312-3.145l-16.93-7.707l9.915-6.24l13.503,4.094l22.021-20.9L28.377,45.996l5.127-5.923l56.71,7.366
		c0,0,16.898-14.98,20.928-16.692C115.176,29.031,117.947,29.569,115.102,34.916z"/>
</g>
<g id="Feedback" display="none">
	<path id="Feedback_1_" display="inline" fill="#4AA8DA" d="M70.866,2.268C31.728,2.268,0,33.996,0,73.134
		C0,112.272,31.728,144,70.866,144c39.139,0,70.866-31.728,70.866-70.866C141.732,33.996,110.005,2.268,70.866,2.268z
		 M28.375,80.438h-13.75v-32.75h13.75V80.438z M32.25,47.82C42.952,40.146,48.765,33.908,52,25.333
		c3.333-8.833-2.084-14.283,5.5-15.125c3.75-0.417,10.198,5.844,4.906,27.51c-0.995,4.075,13.011,1.615,18.511,3.115
		s9.177,7.807,2.771,11.385c-0.843,0.471-0.534,1.313,0.297,1.281c4.349-0.167,11.558,10.625-1.391,11.938
		c-0.296,0.03-0.357,0.486,0.094,0.667c9.344,3.739,3.797,11.661-2.969,11.442c-0.221-0.007-0.547,0.516,0.078,0.844
		c6.249,3.281,0.745,11.234-4.964,11.026c-8.323-0.304-27.095,2.387-42.583-9.247V47.82z M109.406,99.021
		c-10.702,7.675-16.515,13.913-19.75,22.487c-3.333,8.833,2.084,14.282-5.5,15.125c-3.75,0.416-10.198-5.844-4.906-27.511
		c0.995-4.074-13.011-1.614-18.511-3.114s-9.177-7.808-2.771-11.386c0.142-0.079,0.24-0.17,0.319-0.264
		c6.475,0.319,12.069-0.085,15.777,0.051c6.285,0.229,14.45-5.034,12.981-13.098c-0.103-0.563,0.018-0.608,0.5-0.875
		c7.745-4.271,3.762-13.202,3.984-13.406c2.588-2.381,3.3-5.17,2.875-7.58c5.042,1.368,10.18,3.6,15,7.221V99.021z M113.281,99.154
		v-32.75h13.75v32.75L113.281,99.154z"/>
</g>
<g id="Episodes" display="none">
	<path id="Episodes_5_" display="inline" fill="#4AA8DA" d="M78.098,68.077H41.235c-4.837,0-6.569,1.583-6.569,6.009V99.12
		c0,4.425,1.732,6.009,6.569,6.009h36.862c4.837,0,6.569-1.584,6.569-6.009V74.086C84.667,69.661,82.935,68.077,78.098,68.077z
		 M74.24,88.651C72.965,89.404,52.11,101.463,50.6,102.3c-1.106,0.614-2.557-0.063-2.557-1.462V73.549
		c0-1.269,1.313-2.213,2.61-1.471c1.04,0.595,21.814,12.592,23.587,13.618C75.404,86.37,75.385,87.978,74.24,88.651z M70.866,2.268
		C31.728,2.268,0,33.996,0,73.134C0,112.272,31.728,144,70.866,144c39.139,0,70.866-31.728,70.866-70.866
		C141.732,33.996,110.005,2.268,70.866,2.268z M93.667,106.085c0,6.687-2.355,9.081-8.934,9.081H34.601
		c-6.579,0-8.935-2.395-8.935-9.081V68.248c0-6.688,2.355-9.081,8.935-9.081h50.132c6.578,0,8.934,2.394,8.934,9.081V106.085z
		 M106.417,93.335c0,6.687-2.355,9.081-8.934,9.081h-0.067l0.001-41.08c0-4.425-1.732-6.009-6.569-6.009h-52.43
		c0.02-6.624,2.381-8.911,8.934-8.911h50.132c6.578,0,8.934,2.394,8.934,9.081V93.335z M119.459,80.375
		c0,6.688-2.355,9.082-8.934,9.082h-0.067l0.001-41.08c0-4.425-1.732-6.009-6.569-6.009H51.46c0.02-6.624,2.381-8.911,8.934-8.911
		h50.132c6.578,0,8.934,2.394,8.934,9.081V80.375z"/>
</g>
<g id="Future" display="none">
	<path id="Future_1_" display="inline" fill="#4AA8DA" d="M70.866,2.268C31.728,2.268,0,33.996,0,73.134
		C0,112.272,31.728,144,70.866,144c39.139,0,70.866-31.728,70.866-70.866C141.732,33.996,110.005,2.268,70.866,2.268z
		 M101.498,98.231c-6.752,0-12.876-2.664-17.395-6.994L51.779,59.12c-3.408-3.218-7.877-5.072-12.936-5.072
		c-10.513,0-19.035,8.522-19.035,19.035c0,10.513,8.522,19.035,19.035,19.035c3.971,0,7.827-1.233,11.093-3.312L61.034,77.71
		l4.443,4.443L54.28,93.346c-4.469,3.137-9.795,4.885-15.437,4.885c-13.89,0-25.148-11.259-25.148-25.147
		c0-13.891,11.259-25.148,25.148-25.148c6.752,0,12.876,2.665,17.394,6.994L88.634,87.11c3.408,3.219,7.806,5.008,12.864,5.008
		c10.513,0,19.035-8.522,19.035-19.035c0-10.513-8.522-19.035-19.035-19.035c-4.557,0-8.729,1.611-12,4.285l5.392,5.392
		l-17.928,2.583l2.583-17.928l5.611,5.612c4.395-3.771,10.098-6.057,16.342-6.057c13.89,0,25.148,11.259,25.148,25.148
		C126.646,86.974,115.388,98.231,101.498,98.231z"/>
</g>
<g id="Premise" display="none">
	<path id="Premise_1_" display="inline" fill="#4AA8DA" d="M70.866,2.268C31.728,2.268,0,33.996,0,73.134
		C0,112.272,31.728,144,70.866,144c39.138,0,70.866-31.728,70.866-70.866C141.732,33.996,110.004,2.268,70.866,2.268z
		 M111.603,76.842c-3.198,1.886-55.453,32.101-59.237,34.199c-2.771,1.539-6.406-0.161-6.406-3.663v-68.38
		c0-3.179,3.289-5.544,6.539-3.685c2.605,1.489,54.662,31.55,59.104,34.122C114.521,71.125,114.472,75.151,111.603,76.842z"/>
</g>
<g id="Prolog" display="none">
	<path display="inline" fill="#4AA8DA" d="M70.866,2.268C31.728,2.268,0,33.996,0,73.134C0,112.272,31.728,144,70.866,144
		c39.139,0,70.866-31.728,70.866-70.866C141.732,33.996,110.005,2.268,70.866,2.268z M36.297,106.657
		c-2.109-2.109,6.679-24.441,15.652-15.468C60.923,100.163,38.407,108.767,36.297,106.657z M91.818,76.953
		c-2.164,2.164-3.953,3.887-5.465,5.273l1.909,17.397c0.185,0.743-0.15,1.733-0.925,2.508l-9.166,9.166
		c-0.875,0.875-2.022,1.186-2.781,0.82c-0.132-0.063-0.255-0.14-0.358-0.244c-1.803-1.585,1.919-11.65,0.873-13.577l-5.907-5.986
		c-7.972,7.151-9.814,4.451-11.272,2.992l-10.77-10.771c-1.459-1.459-4.16-3.3,2.993-11.273l-6.165-6.083
		c-1.927-1.046-11.993,2.676-13.578,0.874c-0.104-0.104-0.182-0.228-0.244-0.359c-0.365-0.759-0.054-1.906,0.821-2.781l9.166-9.166
		c0.774-0.774,1.764-1.11,2.507-0.925l17.401,1.91c1.394-1.522,3.12-3.315,5.27-5.465c13.798-13.798,35.93-16.867,39.245-13.553
		C108.995,41.333,105.616,63.155,91.818,76.953z M85.417,52.25c-3.037,0-5.5,2.462-5.5,5.5s2.463,5.5,5.5,5.5s5.5-2.462,5.5-5.5
		S88.454,52.25,85.417,52.25z"/>
</g>
<g id="Trailer" display="none">
	<path id="Trailer_1_" display="inline" fill="#4AA8DA" d="M70.867,2.268C31.728,2.268,0,33.996,0,73.134
		C0,112.272,31.728,144,70.867,144c39.137,0,70.866-31.728,70.866-70.866C141.732,33.996,110.004,2.268,70.867,2.268z
		 M97.511,28.414c6.672-1.729,9.719-0.29,11.624,7.063l0.983,3.797l-4.646,1.204l-11.219-11.22L97.511,28.414z M68.13,59.917h14.13
		l-7.127,12.917H61.003L68.13,59.917z M54.867,72.834H40.929l7.127-12.917h13.938L54.867,72.834z M88.397,59.917h14.08L95.35,72.834
		H81.27L88.397,59.917z M88.62,30.717l11.219,11.22L86.08,45.501L74.86,34.282L88.62,30.717z M69.227,35.742l11.219,11.22
		l-13.958,3.616l-11.22-11.22L69.227,35.742z M36.163,44.308l13.472-3.491l11.22,11.22l-13.692,3.547L35.947,44.369
		C36.021,44.349,36.088,44.328,36.163,44.308z M31.017,46.532l10.513,10.513l-11.085,2.872H41.92l-7.127,12.917h-4.375v-12.91
		l-0.001,0l-0.983-3.798C28.167,51.242,28.621,48.4,31.017,46.532z M112.667,103.295c0,7.595-3.588,10.752-10.479,10.752H40.813
		c-6.893,0-10.48-3.157-10.48-10.752V76.372h82.333V103.295z M112.667,72.834h-11.181l7.128-12.917h4.053V72.834z"/>
</g>
<g id="Storyline" display="none">
	<path id="Storyline_1_" display="inline" fill="#4AA8DA" d="M70.866,2.268C31.728,2.268,0,33.996,0,73.134
		C0,112.272,31.728,144,70.866,144c39.138,0,70.866-31.728,70.866-70.866C141.732,33.996,110.004,2.268,70.866,2.268z
		 M83.172,117.762H60.175v-16.267h22.997V117.762z M89.824,81.229c-4.961,3.576-7.037,4.229-7.037,12.537H59.868
		c0-11.076,0.499-15.308,8.691-21.113c4.464-3.164,7.152-5.152,7.152-9.883c0-8.999-4.038-10.653-8.882-10.653
		c-6.462,0-9.7,4.389-10.153,8.653v0.115h-21.65c0-20.074,20.497-32.38,33.072-32.38c13.804,0,32.61,7.346,32.61,29.958
		C100.707,67.808,98.707,74.884,89.824,81.229z"/>
</g>
<g id="Finale" display="none">
	<path id="Finale_1_" display="inline" fill="#4AA8DA" d="M70.866,2.268C31.728,2.268,0,33.996,0,73.134
		C0,112.272,31.728,144,70.866,144c39.138,0,70.866-31.728,70.866-70.866C141.732,33.996,110.004,2.268,70.866,2.268z M114.707,91.4
		l-24.354-2.899l15.077,29.574L75.274,96.62l-24.936,28.414l11.598-35.373l-36.533,18.557l25.515-26.096l-38.273-5.799l34.794-6.958
		L27.143,54.288l24.936,1.74L32.942,28.192l31.314,20.877l3.479-19.717l5.799,17.977L96.73,21.233l-5.219,28.995l26.675-5.799
		L94.991,61.827l26.096,3.479L97.891,76.903L114.707,91.4z"/>
</g>
<g id="Epilog" display="none">
	<path id="Epilog_1_" display="inline" fill="#4AA8DA" d="M70.866,2.268C31.728,2.268,0,33.996,0,73.134
		C0,112.272,31.728,144,70.866,144c39.138,0,70.866-31.728,70.866-70.866C141.732,33.996,110.004,2.268,70.866,2.268z
		 M83.114,117.562H59.271v-17.449h23.843V117.562z M86.582,51.354l-4.95,41.581H60.1l-4.95-41.581V28.707h31.432V51.354z"/>
</g>
<g id="Episode1" display="none">
	<path id="Episode1_1_" display="inline" fill="#4AA8DA" d="M70.866,2.268C31.728,2.268,0,33.996,0,73.135
		C0,112.272,31.728,144,70.866,144c39.138,0,70.866-31.728,70.866-70.865C141.732,33.996,110.004,2.268,70.866,2.268z
		 M86.369,42.364l-0.488,0.488c-3.32,0.195-5.225,0.358-5.713,0.488c-0.944,0.261-1.498,0.863-1.66,1.807
		c-0.424,2.344-0.635,7.39-0.635,15.137v25.83c0,7.748,0.211,12.793,0.635,15.137c0.162,0.944,0.716,1.547,1.66,1.807
		c0.488,0.131,2.393,0.293,5.713,0.488l0.488,0.488v3.271l-0.439,0.488c-3.256-0.195-8.285-0.293-15.088-0.293
		c-6.771,0-11.784,0.098-15.039,0.293l-0.439-0.488v-3.271l0.488-0.488c3.32-0.195,5.225-0.357,5.713-0.488
		c0.943-0.26,1.497-0.862,1.66-1.807c0.423-2.344,0.635-7.389,0.635-15.137v-25.83c0-7.747-0.212-12.793-0.635-15.137
		c-0.163-0.943-0.717-1.546-1.66-1.807c-0.488-0.13-2.393-0.293-5.713-0.488l-0.488-0.488v-3.32l0.488-0.439
		c3.125,0.195,8.138,0.293,15.039,0.293c6.868,0,11.865-0.098,14.99-0.293l0.488,0.439V42.364z"/>
</g>
<g id="Episode2" display="none">
	<path id="Episode2_1_" display="inline" fill="#4AA8DA" d="M70.866,2.268C31.728,2.268,0,33.996,0,73.135
		C0,112.272,31.728,144,70.866,144c39.138,0,70.866-31.728,70.866-70.865C141.732,33.996,110.004,2.268,70.866,2.268z
		 M66.911,42.363l-0.488,0.488c-3.32,0.195-5.225,0.358-5.713,0.488c-0.944,0.261-1.498,0.863-1.66,1.807
		c-0.424,2.344-0.635,7.39-0.635,15.137v25.83c0,7.748,0.211,12.793,0.635,15.137c0.162,0.944,0.716,1.547,1.66,1.807
		c0.488,0.131,2.393,0.293,5.713,0.488l0.488,0.488v3.271l-0.439,0.488c-3.256-0.195-8.285-0.293-15.088-0.293
		c-6.771,0-11.784,0.098-15.039,0.293l-0.439-0.488v-3.271l0.488-0.488c3.32-0.195,5.225-0.357,5.713-0.488
		c0.943-0.26,1.497-0.862,1.66-1.807c0.423-2.344,0.635-7.389,0.635-15.137v-25.83c0-7.747-0.212-12.793-0.635-15.137
		c-0.163-0.943-0.717-1.546-1.66-1.807c-0.488-0.13-2.393-0.293-5.713-0.488l-0.488-0.488v-3.32l0.488-0.439
		c3.125,0.195,8.138,0.293,15.039,0.293c6.868,0,11.865-0.098,14.99-0.293l0.488,0.439V42.363z M105.827,42.363l-0.488,0.488
		c-3.32,0.195-5.225,0.358-5.713,0.488c-0.944,0.261-1.498,0.863-1.66,1.807c-0.424,2.344-0.635,7.39-0.635,15.137v25.83
		c0,7.748,0.211,12.793,0.635,15.137c0.162,0.944,0.716,1.547,1.66,1.807c0.488,0.131,2.393,0.293,5.713,0.488l0.488,0.488v3.271
		l-0.439,0.488c-3.256-0.195-8.285-0.293-15.088-0.293c-6.771,0-11.784,0.098-15.039,0.293l-0.439-0.488v-3.271l0.488-0.488
		c3.32-0.195,5.225-0.357,5.713-0.488c0.943-0.26,1.497-0.862,1.66-1.807c0.423-2.344,0.635-7.389,0.635-15.137v-25.83
		c0-7.747-0.212-12.793-0.635-15.137c-0.163-0.943-0.717-1.546-1.66-1.807c-0.488-0.13-2.393-0.293-5.713-0.488l-0.488-0.488v-3.32
		l0.488-0.439c3.125,0.195,8.138,0.293,15.039,0.293c6.868,0,11.865-0.098,14.99-0.293l0.488,0.439V42.363z"/>
</g>
<g id="Episode3" display="none">
	<path id="Episode3_1_" display="inline" fill="#4AA8DA" d="M70.866,2.268C31.728,2.268,0,33.996,0,73.135
		C0,112.272,31.728,144,70.866,144c39.138,0,70.866-31.728,70.866-70.865C141.732,33.996,110.004,2.268,70.866,2.268z
		 M47.128,42.363l-0.488,0.488c-3.32,0.195-5.225,0.358-5.713,0.488c-0.944,0.261-1.498,0.863-1.66,1.807
		c-0.424,2.344-0.635,7.39-0.635,15.137v25.83c0,7.748,0.211,12.793,0.635,15.137c0.162,0.944,0.716,1.547,1.66,1.807
		c0.488,0.131,2.393,0.293,5.713,0.488l0.488,0.488v3.271l-0.439,0.488c-3.256-0.195-8.285-0.293-15.088-0.293
		c-6.771,0-11.784,0.098-15.039,0.293l-0.439-0.488v-3.271l0.488-0.488c3.32-0.195,5.225-0.357,5.713-0.488
		c0.943-0.26,1.497-0.862,1.66-1.807c0.423-2.344,0.635-7.389,0.635-15.137v-25.83c0-7.747-0.212-12.793-0.635-15.137
		c-0.163-0.943-0.717-1.546-1.66-1.807c-0.488-0.13-2.393-0.293-5.713-0.488l-0.488-0.488v-3.32l0.488-0.439
		c3.125,0.195,8.138,0.293,15.039,0.293c6.868,0,11.865-0.098,14.99-0.293l0.488,0.439V42.363z M86.044,42.363l-0.488,0.488
		c-3.32,0.195-5.225,0.358-5.713,0.488c-0.944,0.261-1.498,0.863-1.66,1.807c-0.424,2.344-0.635,7.39-0.635,15.137v25.83
		c0,7.748,0.211,12.793,0.635,15.137c0.162,0.944,0.716,1.547,1.66,1.807c0.488,0.131,2.393,0.293,5.713,0.488l0.488,0.488v3.271
		l-0.439,0.488c-3.256-0.195-8.285-0.293-15.088-0.293c-6.771,0-11.784,0.098-15.039,0.293l-0.439-0.488v-3.271l0.488-0.488
		c3.32-0.195,5.225-0.357,5.713-0.488c0.943-0.26,1.497-0.862,1.66-1.807c0.423-2.344,0.635-7.389,0.635-15.137v-25.83
		c0-7.747-0.212-12.793-0.635-15.137c-0.163-0.943-0.717-1.546-1.66-1.807c-0.488-0.13-2.393-0.293-5.713-0.488l-0.488-0.488v-3.32
		l0.488-0.439c3.125,0.195,8.138,0.293,15.039,0.293c6.868,0,11.865-0.098,14.99-0.293l0.488,0.439V42.363z M117.099,101.25
		c0.162,0.944,0.716,1.547,1.66,1.807c0.488,0.131,2.393,0.293,5.713,0.488l0.488,0.488v3.271l-0.439,0.488
		c-3.256-0.195-8.285-0.293-15.088-0.293c-6.771,0-11.784,0.098-15.039,0.293l-0.439-0.488v-3.271l0.488-0.488
		c3.32-0.195,5.225-0.357,5.713-0.488c0.943-0.26,1.497-0.862,1.66-1.807c0.423-2.344,0.635-7.389,0.635-15.137v-25.83
		c0-7.747-0.212-12.793-0.635-15.137c-0.163-0.943-0.717-1.546-1.66-1.807c-0.488-0.13-2.393-0.293-5.713-0.488l-0.488-0.488v-3.32
		l0.488-0.439c3.125,0.195,8.138,0.293,15.039,0.293c6.868,0,11.865-0.098,14.99-0.293l0.488,0.439v3.32l-0.488,0.488
		c-3.32,0.195-5.225,0.358-5.713,0.488c-0.944,0.261-1.498,0.863-1.66,1.807c-0.424,2.344-0.635,7.39-0.635,15.137v25.83
		C116.464,93.861,116.675,98.906,117.099,101.25z"/>
</g>
<g id="WorkingTitle">

		<image display="none" width="1280" height="1280" xlink:href="446739C6.jpg"  transform="matrix(0.0967 0 0 0.0967 8.9487 11.2168)">
	</image>
	<path fill="#4AA8DA" d="M70.866,2.268C31.728,2.268,0,33.996,0,73.134C0,112.272,31.728,144,70.866,144
		c39.139,0,70.867-31.728,70.867-70.866C141.732,33.996,110.005,2.268,70.866,2.268z M29.764,114.098l7.708-22.536l14.882,14.883
		L29.764,114.098z M54.559,104.399L39.675,89.518L85.89,43.303l14.883,14.882L54.559,104.399z M106.352,52.658l-3.203,3.204
		L88.274,40.987l3.203-3.203c7.451-7.458,7.451-7.458,14.739-0.169l0.304,0.304C113.811,45.21,113.811,45.21,106.352,52.658z"/>
</g>
</svg>
