<?xml version="1.0" encoding="utf-8"?>
<!DOCTYPE svg PUBLIC "-//W3C//DTD SVG 1.1//EN" "http://www.w3.org/Graphics/SVG/1.1/DTD/svg11.dtd" [
	<!ENTITY ns_svg "http://www.w3.org/2000/svg">
	<!ENTITY ns_xlink "http://www.w3.org/1999/xlink">
]>
<svg  version="1.1" xmlns="&ns_svg;" xmlns:xlink="&ns_xlink;" width="144" height="144" viewBox="0 0 144 144"
	 overflow="visible" enable-background="new 0 0 144 144" xml:space="preserve">
<g id="Concept">
	<path id="Concept_17_" fill="#00a2bd" d="M79.282,19.536c-2.723-0.798-5.555-1.204-8.414-1.204c-7.959,0-15.445,3.102-21.076,8.735
		c-5.625,5.625-8.725,13.107-8.727,20.995c0,0,0.129,2.782,0.129,2.815c0.373,4.09,1.566,7.994,3.611,11.731l0.299,0.58
		c7.51,14.41,11.648,26.701,11.648,34.453v0.023c0,0,0.365,3.571,0.365,3.701c0.669,2.72,1.893,2.722,2.416,2.722h9.861
		l-0.057-6.391c-0.021-6.108-0.114-13.401-0.667-19.987c-1.275-0.294-2.655-0.959-4.733-2.311l-0.824-0.534
		c-5.031-3.252-7.067-7.957-7.067-11.997c0-1.006,0.126-1.972,0.364-2.862c0.74-2.777,2.563-4.574,4.757-4.688
		c2.188-0.115,5.393,1.31,8.237,8.749c0.582,1.52,0.97,3.477,1.352,5.439c1.857-7.181,4.579-14.275,8.756-16.285
		c1.713-0.825,3.576-0.763,5.383,0.177c1.787,0.929,2.798,2.441,2.924,4.373c0.008,0.134,0.012,0.271,0.012,0.409
		c0,6.218-8.826,14.714-10.935,16.184c-2.003,1.398-3.407,2.272-4.633,2.861c-0.046,0.221-0.091,0.393-0.134,0.619
		c0,0-0.144,0.723-0.17,0.853c0.469,6.379,0.529,13.225,0.55,18.99l0.058,6.401h9.628c0.524,0,1.755,0,2.384-2.511
		c0,0,0.4-3.912,0.393-3.751c0-13.688,12.005-35.154,12.1-35.32c1.934-3.688,3.101-7.601,3.463-11.559c0,0,0.131-2.809,0.133-2.813
		c0-7.958-3.098-15.439-8.723-21.068C88.415,23.539,84.036,20.934,79.282,19.536z M75.081,118.499H62.583
		c-0.879,0-1.596,0.715-1.596,1.6c0,0.884,0.717,1.601,1.596,1.601h12.498c0.883,0,1.594-0.717,1.594-1.601
		C76.675,119.214,75.964,118.499,75.081,118.499z M84.663,58.207c0-0.079-0.004-0.155-0.008-0.23
		c-0.053-0.82-0.418-1.348-1.222-1.764c-0.926-0.483-1.735-0.525-2.546-0.135c-2.01,0.967-4.886,4.818-7.716,16.949
		c0.665-0.437,1.228-0.787,2.161-1.438C77.319,70.204,84.663,62.506,84.663,58.207z M79.437,112.107H62.296
		c-0.885,0-1.602,0.716-1.602,1.597c0,0.883,0.717,1.599,1.602,1.599h17.141c0.886,0,1.602-0.716,1.602-1.599
		C81.038,112.823,80.322,112.107,79.437,112.107z M61.335,58.483c-0.764,0.041-1.494,0.958-1.862,2.34
		c-0.163,0.61-0.247,1.281-0.247,1.986c0,3.06,1.612,6.81,5.611,9.393l0.829,0.539c1.14,0.74,1.938,1.199,2.653,1.51
		c-0.424-3.474-0.974-6.697-1.873-9.052C64.513,60.146,62.483,58.422,61.335,58.483z M70.866,2.268C31.728,2.268,0,33.995,0,73.134
		C0,112.271,31.728,144,70.866,144c39.138,0,70.866-31.729,70.866-70.866C141.732,33.995,110.004,2.268,70.866,2.268z
		 M70.868,131.106c-3.736,0-7.041-1.818-9.1-4.613h18.197C77.91,129.288,74.601,131.106,70.868,131.106z M85.13,116.903
		c0,1.563-1.302,2.83-2.9,2.83c1.599,0,2.9,1.27,2.9,2.83c0,1.566-1.302,2.834-2.9,2.834H59.503c-1.6,0-2.9-1.268-2.9-2.834
		c0-1.561,1.301-2.83,2.9-2.83c-1.6,0-2.9-1.268-2.9-2.83s1.301-2.831,2.9-2.831c-1.6,0-2.9-1.269-2.9-2.835
		c0-1.56,1.301-2.824,2.9-2.824h22.727c1.599,0,2.9,1.265,2.9,2.824c0,1.566-1.302,2.835-2.9,2.835
		C83.828,114.072,85.13,115.341,85.13,116.903z M103.696,51.166c-0.406,4.442-1.689,8.753-3.842,12.858
		c-0.117,0.208-11.712,21.098-11.72,33.963c0,0-0.401,3.911-0.438,4.127c-1.094,4.475-3.916,5.144-5.501,5.144H59.534
		c-1.582,0-4.402-0.669-5.535-5.359c0,0-0.4-3.911-0.408-4.072c0-7.41-4.013-19.191-11.298-33.173l-0.514-1.237l0.188,0.59
		c-2.195-3.994-3.517-8.314-3.935-12.912c0,0-0.134-2.887-0.135-2.959c0-8.808,3.429-17.086,9.652-23.309
		c6.23-6.232,14.513-9.664,23.318-9.664c3.163,0,6.293,0.447,9.307,1.333c5.262,1.548,10.107,4.429,14.011,8.332
		c6.225,6.227,9.651,14.504,9.649,23.383C103.835,48.209,103.701,51.096,103.696,51.166z"/>
</g>
</svg>
