<?xml version="1.0" encoding="utf-8"?>
<!DOCTYPE svg PUBLIC "-//W3C//DTD SVG 1.1//EN" "http://www.w3.org/Graphics/SVG/1.1/DTD/svg11.dtd" [
	<!ENTITY ns_svg "http://www.w3.org/2000/svg">
	<!ENTITY ns_xlink "http://www.w3.org/1999/xlink">
]>
<svg  version="1.1" xmlns="&ns_svg;" xmlns:xlink="&ns_xlink;" width="144" height="144" viewBox="0 0 144 144"
	 overflow="visible" enable-background="new 0 0 144 144" xml:space="preserve">
<g id="Review">
	<path id="Review_1_" fill="#7bc4a3" d="M70.866,2.268C31.728,2.268,0,33.996,0,73.134C0,112.272,31.728,144,70.866,144
		c39.139,0,70.866-31.728,70.866-70.866C141.732,33.996,110.005,2.268,70.866,2.268z M28.375,80.438h-13.75v-32.75h13.75V80.438z
		 M32.25,47.82C42.952,40.146,48.765,33.908,52,25.333c3.333-8.833-2.084-14.283,5.5-15.125c3.75-0.417,10.198,5.844,4.906,27.51
		c-0.995,4.075,13.011,1.615,18.511,3.115s9.177,7.807,2.771,11.385c-0.843,0.471-0.534,1.313,0.297,1.281
		c4.349-0.167,11.558,10.625-1.391,11.938c-0.296,0.03-0.357,0.486,0.094,0.667c9.344,3.739,3.797,11.661-2.969,11.442
		c-0.221-0.007-0.547,0.516,0.078,0.844c6.249,3.281,0.745,11.234-4.964,11.026c-8.323-0.304-27.095,2.387-42.583-9.247V47.82z
		 M109.406,99.021c-10.702,7.675-16.515,13.913-19.75,22.487c-3.333,8.833,2.084,14.282-5.5,15.125
		c-3.75,0.416-10.198-5.844-4.906-27.511c0.995-4.074-13.011-1.614-18.511-3.114s-9.177-7.808-2.771-11.386
		c0.142-0.079,0.24-0.17,0.319-0.264c6.475,0.319,12.069-0.085,15.777,0.051c6.285,0.229,14.45-5.034,12.981-13.098
		c-0.103-0.563,0.018-0.608,0.5-0.875c7.745-4.271,3.762-13.202,3.984-13.406c2.588-2.381,3.3-5.17,2.875-7.58
		c5.042,1.368,10.18,3.6,15,7.221V99.021z M113.281,99.154v-32.75h13.75v32.75L113.281,99.154z"/>
</g>
</svg>
