<?xml version="1.0" encoding="utf-8"?>
<!DOCTYPE svg PUBLIC "-//W3C//DTD SVG 1.1//EN" "http://www.w3.org/Graphics/SVG/1.1/DTD/svg11.dtd" [
	<!ENTITY ns_svg "http://www.w3.org/2000/svg">
	<!ENTITY ns_xlink "http://www.w3.org/1999/xlink">
]>
<svg  version="1.1" xmlns="&ns_svg;" xmlns:xlink="&ns_xlink;" width="144" height="144" viewBox="0 0 144 144"
	 overflow="visible" enable-background="new 0 0 144 144" xml:space="preserve">
<g id="Prolog">
	<path id="Prolog_1_" fill="#755ca4" d="M70.866,2.268C31.728,2.268,0,33.996,0,73.134C0,112.272,31.728,144,70.866,144
		c39.139,0,70.866-31.728,70.866-70.866C141.732,33.996,110.005,2.268,70.866,2.268z M36.297,106.657
		c-2.109-2.109,6.679-24.441,15.652-15.468C60.923,100.163,38.407,108.767,36.297,106.657z M91.818,76.953
		c-2.164,2.164-3.953,3.887-5.465,5.273l1.909,17.397c0.185,0.743-0.15,1.733-0.925,2.508l-9.166,9.166
		c-0.875,0.875-2.022,1.186-2.781,0.82c-0.132-0.063-0.255-0.14-0.358-0.244c-1.803-1.585,1.919-11.65,0.873-13.577l-5.907-5.986
		c-7.972,7.151-9.814,4.451-11.272,2.992l-10.77-10.771c-1.459-1.459-4.16-3.3,2.993-11.273l-6.165-6.083
		c-1.927-1.046-11.993,2.676-13.578,0.874c-0.104-0.104-0.182-0.228-0.244-0.359c-0.365-0.759-0.054-1.906,0.821-2.781l9.166-9.166
		c0.774-0.774,1.764-1.11,2.507-0.925l17.401,1.91c1.394-1.522,3.12-3.315,5.27-5.465c13.798-13.798,35.93-16.867,39.245-13.553
		C108.995,41.333,105.616,63.155,91.818,76.953z M85.417,52.25c-3.037,0-5.5,2.462-5.5,5.5s2.463,5.5,5.5,5.5s5.5-2.462,5.5-5.5
		S88.454,52.25,85.417,52.25z"/>
</g>
</svg>
