<?xml version="1.0" encoding="utf-8"?>
<!DOCTYPE svg PUBLIC "-//W3C//DTD SVG 1.1//EN" "http://www.w3.org/Graphics/SVG/1.1/DTD/svg11.dtd" [
	<!ENTITY ns_svg "http://www.w3.org/2000/svg">
	<!ENTITY ns_xlink "http://www.w3.org/1999/xlink">
]>
<svg  version="1.1" xmlns="&ns_svg;" xmlns:xlink="&ns_xlink;" width="144" height="144" viewBox="0 0 144 144"
	 overflow="visible" enable-background="new 0 0 144 144" xml:space="preserve">
<g id="Protagonists">
	<path id="Protagonists_1_" fill="#4AA8DA" d="M70.866,2.268C31.728,2.268,0,33.996,0,73.134C0,112.272,31.728,144,70.866,144
		c39.139,0,70.866-31.728,70.866-70.866C141.732,33.996,110.005,2.268,70.866,2.268z M99.032,30.024
		c5.877,0,10.64,4.764,10.64,10.64s-4.763,10.64-10.64,10.64s-10.639-4.764-10.639-10.64S93.155,30.024,99.032,30.024z
		 M71.28,25.526c6.428,0,11.643,5.212,11.643,11.641c0,6.43-5.215,11.643-11.643,11.643c-6.429,0-11.642-5.212-11.642-11.643
		C59.639,30.739,64.852,25.526,71.28,25.526z M43.223,30.024c5.878,0,10.64,4.765,10.64,10.64c0,5.876-4.761,10.64-10.64,10.64
		c-5.876,0-10.639-4.764-10.639-10.64C32.584,34.789,37.347,30.024,43.223,30.024z M54.744,102.063v12.838
		c0,2.478-2.009,2.374-4.484,2.374c-2.48,0-4.048,0.267-4.484-2.374l-2.129-12.838H42.8l-2.129,12.838
		c-0.437,2.641-2.005,2.374-4.484,2.374c-2.474,0-4.484,0.104-4.484-2.374v-12.838l-0.044-14.439
		c-3.165-1.692-5.231-4.649-5.231-8.863V63.11c0-6.994,5.669-10.552,12.662-10.552h8.27c1.484,0,2.903,0.17,4.228,0.49
		c-1.404,1.824-2.248,4.128-2.248,6.64v20.675c0,4.07,2.203,7.604,5.444,9.409L54.744,102.063z M83.934,88.551l-0.048,15.798v14.047
		c0,2.71-2.198,2.598-4.907,2.598c-2.71,0-4.427,0.29-4.906-2.598l-2.327-14.047h-0.929l-2.326,14.047
		c-0.481,2.888-2.197,2.598-4.907,2.598c-2.71,0-4.907,0.112-4.907-2.598v-14.047l-0.048-15.798
		c-3.463-1.853-5.725-5.088-5.725-9.698V61.727c0-7.652,6.203-11.546,13.854-11.546h9.045c7.651,0,13.854,3.894,13.854,11.546
		v17.126C89.658,83.463,87.396,86.698,83.934,88.551z M115.829,78.763c0,4.213-2.067,7.17-5.232,8.863l-0.043,14.439v12.837
		c0,2.478-2.011,2.374-4.485,2.374c-2.479,0-4.047,0.267-4.482-2.374l-2.129-12.837H98.61l-2.131,12.837
		c-0.437,2.641-2.005,2.374-4.484,2.374c-2.474,0-4.483,0.104-4.483-2.374v-12.837l-0.036-12.293
		c3.239-1.804,5.443-5.339,5.443-9.409V59.688c0-2.512-0.846-4.815-2.249-6.64c1.324-0.319,2.742-0.49,4.229-0.49h8.269
		c6.993,0,12.662,3.558,12.662,10.552V78.763z"/>
</g>
</svg>
