<?xml version="1.0" encoding="utf-8"?>
<!DOCTYPE svg PUBLIC "-//W3C//DTD SVG 1.1//EN" "http://www.w3.org/Graphics/SVG/1.1/DTD/svg11.dtd" [
	<!ENTITY ns_svg "http://www.w3.org/2000/svg">
	<!ENTITY ns_xlink "http://www.w3.org/1999/xlink">
]>
<svg  version="1.1" xmlns="&ns_svg;" xmlns:xlink="&ns_xlink;" width="144" height="144" viewBox="0 0 144 144"
	 overflow="visible" enable-background="new 0 0 144 144" xml:space="preserve">
<g id="Trailer">
	<path id="Trailer_1_" fill="#a55da1" d="M70.867,2.268C31.728,2.268,0,33.996,0,73.134C0,112.272,31.728,144,70.867,144
		c39.137,0,70.866-31.728,70.866-70.866C141.732,33.996,110.004,2.268,70.867,2.268z M97.511,28.414
		c6.672-1.729,9.719-0.29,11.624,7.063l0.983,3.797l-4.646,1.204l-11.219-11.22L97.511,28.414z M68.13,59.917h14.13l-7.127,12.917
		H61.003L68.13,59.917z M54.867,72.834H40.929l7.127-12.917h13.938L54.867,72.834z M88.397,59.917h14.08L95.35,72.834H81.27
		L88.397,59.917z M88.62,30.717l11.219,11.22L86.08,45.501L74.86,34.282L88.62,30.717z M69.227,35.742l11.219,11.22l-13.958,3.616
		l-11.22-11.22L69.227,35.742z M36.163,44.308l13.472-3.491l11.22,11.22l-13.692,3.547L35.947,44.369
		C36.021,44.349,36.088,44.328,36.163,44.308z M31.017,46.532l10.513,10.513l-11.085,2.872H41.92l-7.127,12.917h-4.375v-12.91
		l-0.001,0l-0.983-3.798C28.167,51.242,28.621,48.4,31.017,46.532z M112.667,103.295c0,7.595-3.588,10.752-10.479,10.752H40.813
		c-6.893,0-10.48-3.157-10.48-10.752V76.372h82.333V103.295z M112.667,72.834h-11.181l7.128-12.917h4.053V72.834z"/>
</g>
</svg>
